<svg width="549" height="487" viewBox="0 0 549 487" fill="none" xmlns="http://www.w3.org/2000/svg">
<path d="M368.708 93.1422C368.708 93.1422 378.783 97.7694 379.621 85.152C379.621 85.152 385.078 73.7964 385.918 62.4431C385.918 62.4431 386.337 30.9021 389.697 22.9119C389.697 22.9119 390.956 9.0328 394.734 11.5563C394.734 11.5563 391.375 -3.16239 397.672 0.622823C397.672 0.622823 406.488 1.0426 405.648 15.7637C405.648 15.7637 414.464 22.4921 414.883 34.2675C414.883 34.2675 411.104 58.0234 425.377 46.9862C425.377 46.9862 436.712 46.4627 437.55 59.4999C437.55 59.4999 437.55 77.584 443.847 81.3692C443.847 81.3692 451.403 91.0409 448.884 103.239C448.884 103.239 453.082 104.08 453.503 115.434C453.503 115.434 468.195 116.695 472.392 123.844C472.392 123.844 486.246 128.891 486.246 132.676C486.246 132.676 487.924 136.881 486.246 140.246C486.246 140.246 493.802 139.404 493.381 154.965C493.381 154.965 496.74 170.106 509.751 162.535C509.751 162.535 515.207 168.844 512.689 180.197C512.689 180.197 527.38 180.617 538.294 203.748C538.294 203.748 545.85 202.067 542.491 194.076C542.491 194.076 546.729 201.647 543.35 209.217C543.35 209.217 542.491 226.459 540.391 231.926C540.391 231.926 550.466 244.121 548.366 255.057C548.366 255.057 539.132 285.756 541.65 293.746C541.65 293.746 532.834 306.364 533.675 311.831C533.675 311.831 518.983 320.24 517.305 333.7C517.305 333.7 512.267 347.579 512.267 353.465C512.267 353.465 501.773 359.774 502.192 368.606C502.192 368.606 503.87 373.233 500.092 380.801C500.092 380.801 501.77 392.577 495.473 398.044C495.473 398.044 486.238 402.249 474.485 400.147C474.485 400.147 458.953 425.38 445.939 414.866C445.939 414.866 436.285 412.762 434.186 404.352C434.186 404.352 431.667 399.305 425.791 408.557C425.791 408.557 418.235 419.491 406.902 412.762C406.902 412.762 394.729 406.876 386.333 409.397C386.333 409.397 361.147 401.826 362.825 373.651C362.825 373.651 356.109 364.399 356.109 359.352C356.109 359.352 342.255 366.5 338.479 368.604C338.479 368.604 315.391 376.174 327.145 365.238C327.145 365.238 333.825 361.844 338.479 363.977C338.479 363.977 345.615 365.658 346.874 355.986C346.874 355.986 346.034 339.586 340.577 340.426C340.577 340.426 336.799 342.949 337.639 353.463C337.639 353.463 340.204 357.668 323.81 357.248C323.81 357.248 333.861 356.828 333.861 350.52C333.861 350.52 331.761 337.483 333.861 335.801C333.861 335.801 340.996 334.539 338.898 323.184C338.898 323.184 337.22 312.67 330.504 327.389C330.504 327.389 332.228 332.016 323.81 334.117C323.81 334.117 318.329 332.436 317.491 341.688C317.491 341.688 312.453 347.996 313.293 352.201C313.293 352.201 307.418 354.725 302.799 334.117C302.799 334.117 297.342 329.49 296.502 325.707C296.502 325.707 286.008 323.184 291.464 314.774C291.464 314.774 282.229 310.569 280.97 307.626C279.711 304.682 282.229 310.569 282.229 310.569C282.229 310.569 258.303 304.682 250.746 296.69C250.746 296.69 228.917 295.008 220.523 299.633C220.523 299.633 208.769 313.09 178.964 310.147L163.432 320.24L155.457 320.66C155.457 320.66 153.778 328.65 150 332.436C150 332.436 142.025 339.584 125.652 335.379C125.652 335.379 99.6258 330.332 94.1691 339.584C94.1691 339.584 92.0693 345.47 81.1559 344.631L71.921 355.564L50.5133 354.722C50.5133 354.722 42.5378 342.105 35.8217 342.105C35.8217 342.105 27.8462 329.91 35.8217 329.488C35.8217 329.488 43.7972 328.226 41.2784 314.769L42.9568 297.947C42.9568 297.947 34.608 293.319 32.277 272.714C32.277 272.714 31.6244 258.415 27.0058 252.529C27.0058 252.529 22.3871 250.005 21.1301 235.287C21.1301 235.287 12.7356 222.25 10.6357 215.521C10.6357 215.521 16.0924 224.773 19.4517 220.568C19.4517 220.568 28.6866 216.621 21.1301 208.711C21.1301 208.711 8.53591 194.494 13.1546 178.933C13.1546 178.933 18.6113 183.138 16.5138 164.634L20.7111 151.177C20.7111 151.177 22.3895 168.419 27.0082 160.849C27.0082 160.849 44.6376 136.878 51.3561 137.298C51.3561 137.298 69.407 141.083 75.7041 134.355C75.7041 134.355 97.1118 126.365 105.509 124.261C105.509 124.261 117.262 120.896 120.622 114.167C120.622 114.167 131.116 107.019 129.016 99.4485C129.016 99.4485 129.857 78.8409 138.67 77.5792C138.67 77.5792 143.289 81.7841 144.127 89.7743C144.127 89.7743 148.324 93.9793 149.584 84.7274C149.584 84.7274 143.708 74.2137 152.102 75.0557C152.102 75.0557 158.818 77.1594 163.016 75.8977C163.016 75.8977 155.881 67.0655 163.856 62.8605C163.856 62.8605 167.634 54.4505 173.51 51.5049C173.51 51.5049 187.364 36.7862 195.758 41.8331L207.931 53.1888C207.931 53.1888 206.253 66.6457 211.29 62.4407C211.29 62.4407 212.55 50.2455 221.785 58.2357C221.785 58.2357 232.279 62.8629 228.501 52.769C228.501 52.769 221.366 48.9838 228.082 43.9368C228.082 43.9368 236.476 34.2651 238.576 27.1145C238.576 27.1145 245.292 17.8625 254.946 19.1243C254.946 19.1243 267.959 24.591 268.378 14.9193C268.378 14.9193 270.478 4.40562 281.391 13.2378C281.391 13.2378 299.861 22.0699 307.837 20.8082C307.837 20.8082 317.491 20.3884 322.109 16.6032C322.109 16.6032 325.047 27.5367 317.912 34.2651C317.912 34.2651 314.134 45.6208 307.837 50.6653C307.837 50.6653 302.38 61.179 311.615 62.0209C311.615 62.0209 327.566 68.7494 330.925 72.1149C330.925 72.1149 350.655 81.3668 353.592 84.31C353.592 84.31 361.883 92.9275 368.705 93.1422H368.708Z" fill="white"/>
<path d="M430.742 435.159C430.742 435.159 441.517 446.341 451.824 440.508C451.824 440.508 468.222 429.813 471.502 435.159C471.502 435.159 472.907 452.66 471.502 458.009C471.502 458.009 466.817 476.971 463.538 476.971C463.538 476.971 459.322 492.041 449.015 485.235C449.015 485.235 439.177 479.402 436.834 476.484C436.834 476.484 440.113 457.522 430.744 455.578C430.744 455.578 419.499 439.534 430.744 435.159H430.742Z" fill="white"/>
<path d="M505.872 335.369C502.532 326.763 502.771 311.466 503.247 302.621C503.724 293.777 515.654 287.801 525.914 284.455C530.218 283.051 536.324 282.364 541.966 282.036C543.801 270.246 548.369 255.057 548.369 255.057C550.469 244.123 540.394 231.926 540.394 231.926C542.494 226.459 543.353 209.217 543.353 209.217C546.732 201.646 542.494 194.076 542.494 194.076C545.853 202.066 538.297 203.748 538.297 203.748C527.383 180.617 512.692 180.197 512.692 180.197C515.211 168.841 509.754 162.535 509.754 162.535C496.741 170.105 493.384 154.964 493.384 154.964C493.803 139.404 486.249 140.246 486.249 140.246C487.927 136.88 486.249 132.675 486.249 132.675C486.249 128.89 472.396 123.843 472.396 123.843C468.198 116.695 453.507 115.433 453.507 115.433C453.088 104.078 448.888 103.238 448.888 103.238C451.407 91.0428 443.851 81.3687 443.851 81.3687C437.554 77.5835 437.554 59.4994 437.554 59.4994C436.713 46.4622 425.381 46.9858 425.381 46.9858C411.108 58.0229 414.887 34.2671 414.887 34.2671C414.468 22.4916 405.652 15.7632 405.652 15.7632C406.492 1.04452 397.676 0.622334 397.676 0.622334C391.379 -3.16288 394.739 11.5558 394.739 11.5558C390.96 9.03231 389.701 22.9114 389.701 22.9114C386.342 30.9016 385.923 62.4426 385.923 62.4426C385.082 73.7983 379.626 85.1515 379.626 85.1515C378.785 97.7689 368.712 93.1417 368.712 93.1417C361.893 92.927 353.6 84.3095 353.6 84.3095C350.662 81.3663 330.933 72.1144 330.933 72.1144C327.573 68.7489 311.623 62.0205 311.623 62.0205C302.388 61.1785 307.844 50.6648 307.844 50.6648C314.141 45.6179 317.92 34.2646 317.92 34.2646C325.055 27.5362 322.117 16.6027 322.117 16.6027C317.498 20.3879 307.844 20.8077 307.844 20.8077C299.869 22.0695 281.399 13.2373 281.399 13.2373C270.486 4.40513 268.386 14.9188 268.386 14.9188C267.967 24.5905 254.954 19.1238 254.954 19.1238C245.3 17.8621 238.584 27.114 238.584 27.114C236.484 34.2622 228.09 43.9364 228.09 43.9364C221.374 48.9833 228.509 52.7685 228.509 52.7685C232.287 62.8624 221.793 58.2352 221.793 58.2352C212.558 50.245 211.299 62.4402 211.299 62.4402C206.261 66.6452 207.939 53.1883 207.939 53.1883L195.767 41.8327C187.372 36.7857 173.519 51.5044 173.519 51.5044C167.643 54.4476 163.865 62.86 163.865 62.86C155.889 67.065 163.025 75.8972 163.025 75.8972C158.827 77.1589 152.111 75.0552 152.111 75.0552C143.717 74.2132 149.592 84.7269 149.592 84.7269C149.147 88.0079 148.331 89.5953 147.461 90.2805C147.871 93.547 148.22 96.5385 148.461 98.7146C149.414 107.32 142.258 115.448 138.679 122.14C135.101 128.832 145.836 141.025 154.187 142.936C162.538 144.846 178.761 148.911 185.443 163.015C192.123 177.118 220.04 183.811 226.72 185.963C233.4 188.115 257.261 191.222 256.782 199.827C256.305 208.433 247.477 208.194 238.649 223.73C229.821 239.267 244.852 240.463 244.375 248.35C243.899 256.236 225.525 250.263 210.017 246.676C194.51 243.091 196.894 231.139 194.031 223.25C191.167 215.361 191.167 198.389 183.293 195.762C175.419 193.135 150.845 194.568 146.549 185.724C142.253 176.88 134.619 182.378 124.359 177.357C114.098 172.337 107.656 164.928 105.988 152.977C104.316 141.025 99.5461 139.112 92.3869 134.333C90.8964 133.336 89.1674 131.853 87.3638 130.13C81.0065 132.376 75.7064 134.354 75.7064 134.354C69.4094 141.083 51.3587 137.298 51.3587 137.298C44.6427 136.878 27.011 160.849 27.011 160.849C22.3923 168.419 20.7139 151.177 20.7139 151.177L16.5167 164.634C18.6165 183.138 13.1575 178.933 13.1575 178.933C8.53886 194.493 21.1329 208.71 21.1329 208.71C28.6894 216.618 19.4545 220.568 19.4545 220.568C16.0953 224.773 10.6387 215.521 10.6387 215.521C12.7385 222.249 21.1329 235.286 21.1329 235.286C22.3923 250.005 27.0086 252.528 27.0086 252.528C31.6272 258.415 32.2798 272.714 32.2798 272.714C34.6108 293.321 42.9594 297.946 42.9594 297.946L41.281 314.768C43.7998 328.225 35.8244 329.487 35.8244 329.487C27.849 329.907 35.8244 342.104 35.8244 342.104C42.5404 342.104 50.5159 354.722 50.5159 354.722L71.9234 355.564L81.1582 344.63C92.0715 345.472 94.1713 339.583 94.1713 339.583C99.6279 330.331 125.654 335.378 125.654 335.378C142.024 339.583 150.002 332.435 150.002 332.435C153.78 328.65 155.458 320.66 155.458 320.66L163.434 320.24L178.966 310.146C208.77 313.089 220.524 299.632 220.524 299.632C228.918 295.005 250.747 296.689 250.747 296.689C258.304 304.679 282.23 310.568 282.23 310.568C282.23 310.568 281.445 308.732 280.97 307.625C282.23 310.568 291.465 314.773 291.465 314.773C286.008 323.183 296.502 325.707 296.502 325.707C297.343 329.492 302.799 334.117 302.799 334.117C307.418 354.724 313.294 352.201 313.294 352.201C312.453 347.996 317.491 341.687 317.491 341.687C318.331 332.435 323.81 334.117 323.81 334.117C332.228 332.013 330.504 327.388 330.504 327.388C337.22 312.67 338.898 323.183 338.898 323.183C340.998 334.539 333.861 335.801 333.861 335.801C331.761 337.482 333.861 350.519 333.861 350.519C333.861 356.828 323.81 357.248 323.81 357.248C340.204 357.668 337.639 353.462 337.639 353.462C336.799 342.949 340.577 340.425 340.577 340.425C346.033 339.583 346.874 355.986 346.874 355.986C345.614 365.658 338.479 363.976 338.479 363.976C333.825 361.844 327.145 365.238 327.145 365.238C315.391 376.171 338.479 368.603 338.479 368.603C342.258 366.5 356.109 359.351 356.109 359.351C356.109 364.398 362.825 373.65 362.825 373.65C361.146 401.826 386.332 409.396 386.332 409.396C394.727 406.873 406.902 412.762 406.902 412.762C418.236 419.49 425.79 408.557 425.79 408.557C431.666 399.305 434.185 404.352 434.185 404.352C436.285 412.762 445.938 414.865 445.938 414.865C458.951 425.379 474.483 400.147 474.483 400.147C486.237 402.25 495.472 398.043 495.472 398.043C501.769 392.576 500.09 380.801 500.09 380.801C503.869 373.231 502.19 368.606 502.19 368.606C501.771 359.774 512.266 353.465 512.266 353.465C512.266 352.502 512.4 351.325 512.627 350.032C510.373 345.909 507.868 340.512 505.872 335.369ZM280.807 307.227C280.848 307.323 280.896 307.437 280.954 307.572C280.898 307.444 280.85 307.331 280.807 307.227ZM331.222 146.948C327.405 154.299 319.054 152.984 311.418 150.832C303.782 148.68 293.596 146.552 287.082 147.247C284.477 147.524 283.742 149.399 283.265 152.745C282.789 156.091 281.594 160.634 271.293 160.014C260.989 159.394 263.702 149.876 262.746 142.945C261.793 136.014 260.598 130.755 246.044 123.105C231.49 115.455 225.525 106.611 228.627 98.9631C231.728 91.313 242.704 87.0115 266.802 87.9669C290.899 88.9222 314.519 99.6796 324.542 107.568C334.562 115.457 335.041 139.597 331.222 146.948Z" fill="#D9D9D9"/>
<path d="M250.253 13.8872H238.166V25.9742H250.253V13.8872Z" fill="#921D11"/>
<path d="M267.237 13.8872H255.15V25.9742H267.237V13.8872Z" fill="#921D11"/>
<path d="M284.229 13.8872H272.142V25.9742H284.229V13.8872Z" fill="#921D11"/>
<path d="M301.213 13.8872H289.126V25.9742H301.213V13.8872Z" fill="#921D11"/>
<path d="M318.202 13.8872H306.115V25.9742H318.202V13.8872Z" fill="#921D11"/>
<path d="M403.138 13.8872H391.051V25.9742H403.138V13.8872Z" fill="#921D11"/>
<path d="M420.126 13.8872H408.039V25.9742H420.126V13.8872Z" fill="#921D11"/>
<path d="M250.253 30.7852H238.166V42.8722H250.253V30.7852Z" fill="#921D11"/>
<path d="M267.237 30.7852H255.15V42.8722H267.237V30.7852Z" fill="#921D11"/>
<path d="M284.229 30.7852H272.142V42.8722H284.229V30.7852Z" fill="#921D11"/>
<path d="M301.213 30.7852H289.126V42.8722H301.213V30.7852Z" fill="#921D11"/>
<path d="M318.202 30.7852H306.115V42.8722H318.202V30.7852Z" fill="#921D11"/>
<path d="M386.153 30.7852H374.066V42.8722H386.153V30.7852Z" fill="#921D11"/>
<path d="M403.138 30.7852H391.051V42.8722H403.138V30.7852Z" fill="#C44D34"/>
<path d="M420.126 30.7852H408.039V42.8722H420.126V30.7852Z" fill="#921D11"/>
<path d="M182.302 47.6787H170.215V59.7658H182.302V47.6787Z" fill="#921D11"/>
<path d="M199.289 47.6787H187.202V59.7658H199.289V47.6787Z" fill="#921D11"/>
<path d="M216.276 47.6787H204.189V59.7658H216.276V47.6787Z" fill="#921D11"/>
<path d="M233.263 47.6787H221.176V59.7658H233.263V47.6787Z" fill="#921D11"/>
<path d="M250.253 47.6787H238.166V59.7658H250.253V47.6787Z" fill="#921D11"/>
<path d="M267.237 47.6787H255.15V59.7658H267.237V47.6787Z" fill="#C44D34"/>
<path d="M284.229 47.6787H272.142V59.7658H284.229V47.6787Z" fill="#C44D34"/>
<path d="M301.213 47.6787H289.126V59.7658H301.213V47.6787Z" fill="#921D11"/>
<path d="M318.202 47.6787H306.115V59.7658H318.202V47.6787Z" fill="#921D11"/>
<path d="M386.153 47.6787H374.066V59.7658H386.153V47.6787Z" fill="#C44D34"/>
<path d="M437.112 47.6787H425.025V59.7658H437.112V47.6787Z" fill="#921D11"/>
<path d="M182.302 64.5791H170.215V76.6661H182.302V64.5791Z" fill="#921D11"/>
<path d="M233.263 64.5791H221.176V76.6661H233.263V64.5791Z" fill="#921D11"/>
<path d="M250.253 64.5791H238.166V76.6661H250.253V64.5791Z" fill="#C44D34"/>
<path d="M301.213 64.5791H289.126V76.6661H301.213V64.5791Z" fill="#C44D34"/>
<path d="M318.202 64.5791H306.115V76.6661H318.202V64.5791Z" fill="#921D11"/>
<path d="M386.153 64.5791H374.066V76.6661H386.153V64.5791Z" fill="#C44D34"/>
<path d="M420.126 64.5791H408.039V76.6661H420.126V64.5791Z" fill="#C44D34"/>
<path d="M437.112 64.5791H425.025V76.6661H437.112V64.5791Z" fill="#921D11"/>
<path d="M148.325 81.4761H136.238V93.5631H148.325V81.4761Z" fill="#921D11"/>
<path d="M216.276 81.4761H204.189V93.5631H216.276V81.4761Z" fill="#921D11"/>
<path d="M233.263 81.4761H221.176V93.5631H233.263V81.4761Z" fill="#C44D34"/>
<path d="M301.213 81.4761H289.126V93.5631H301.213V81.4761Z" fill="#C44D34"/>
<path d="M318.202 81.4761H306.115V93.5631H318.202V81.4761Z" fill="#C44D34"/>
<path d="M335.189 81.4761H323.102V93.5631H335.189V81.4761Z" fill="#C44D34"/>
<path d="M352.177 81.4761H340.09V93.5631H352.177V81.4761Z" fill="#C44D34"/>
<path d="M369.164 81.4761H357.077V93.5631H369.164V81.4761Z" fill="#C44D34"/>
<path d="M420.126 81.4761H408.039V93.5631H420.126V81.4761Z" fill="#C44D34"/>
<path d="M437.112 81.4761H425.025V93.5631H437.112V81.4761Z" fill="#C44D34"/>
<path d="M454.101 81.4761H442.014V93.5631H454.101V81.4761Z" fill="#921D11"/>
<path d="M131.34 98.3716H119.253V110.459H131.34V98.3716Z" fill="#921D11"/>
<path d="M216.276 98.3716H204.189V110.459H216.276V98.3716Z" fill="#921D11"/>
<path d="M233.263 98.3716H221.176V110.459H233.263V98.3716Z" fill="#C44D34"/>
<path d="M335.189 98.3716H323.102V110.459H335.189V98.3716Z" fill="#921D11"/>
<path d="M352.177 98.3716H340.09V110.459H352.177V98.3716Z" fill="#C44D34"/>
<path d="M437.112 98.3716H425.025V110.459H437.112V98.3716Z" fill="#C44D34"/>
<path d="M454.101 98.3716H442.014V110.459H454.101V98.3716Z" fill="#921D11"/>
<path d="M97.3634 115.269H85.2764V127.356H97.3634V115.269Z" fill="#921D11"/>
<path d="M216.276 115.269H204.189V127.356H216.276V115.269Z" fill="#921D11"/>
<path d="M233.263 115.269H221.176V127.356H233.263V115.269Z" fill="#C44D34"/>
<path d="M284.229 115.269H272.142V127.356H284.229V115.269Z" fill="#C44D34"/>
<path d="M335.189 115.269H323.102V127.356H335.189V115.269Z" fill="#921D11"/>
<path d="M352.177 115.269H340.09V127.356H352.177V115.269Z" fill="#921D11"/>
<path d="M454.101 115.269H442.014V127.356H454.101V115.269Z" fill="#C44D34"/>
<path d="M471.088 115.269H459.001V127.356H471.088V115.269Z" fill="#921D11"/>
<path d="M488.076 115.269H475.989V127.356H488.076V115.269Z" fill="#921D11"/>
<path d="M63.3898 132.168H51.3027V144.255H63.3898V132.168Z" fill="#921D11"/>
<path d="M80.379 132.159H68.292V144.246H80.379V132.159Z" fill="#C44D34"/>
<path d="M97.3634 132.159H85.2764V144.246H97.3634V132.159Z" fill="#C44D34"/>
<path d="M233.263 132.168H221.176V144.255H233.263V132.168Z" fill="#921D11"/>
<path d="M250.253 132.168H238.166V144.255H250.253V132.168Z" fill="#C44D34"/>
<path d="M267.237 132.168H255.15V144.255H267.237V132.168Z" fill="#C44D34"/>
<path d="M284.229 132.168H272.142V144.255H284.229V132.168Z" fill="#C44D34"/>
<path d="M352.177 132.168H340.09V144.255H352.177V132.168Z" fill="#921D11"/>
<path d="M369.164 132.168H357.077V144.255H369.164V132.168Z" fill="#C44D34"/>
<path d="M386.153 132.168H374.066V144.255H386.153V132.168Z" fill="#C44D34"/>
<path d="M454.101 132.168H442.014V144.255H454.101V132.168Z" fill="#C44D34"/>
<path d="M471.088 132.168H459.001V144.255H471.088V132.168Z" fill="#921D11"/>
<path d="M488.076 132.168H475.989V144.255H488.076V132.168Z" fill="#921D11"/>
<path d="M29.4171 149.063H17.3301V161.15H29.4171V149.063Z" fill="#921D11"/>
<path d="M46.4064 149.063H34.3193V161.15H46.4064V149.063Z" fill="#921D11"/>
<path d="M63.3898 149.063H51.3027V161.15H63.3898V149.063Z" fill="#921D11"/>
<path d="M80.379 149.056H68.292V161.143H80.379V149.056Z" fill="#C44D34"/>
<path d="M97.3634 149.056H85.2764V161.143H97.3634V149.056Z" fill="#C44D34"/>
<path d="M233.263 149.063H221.176V161.15H233.263V149.063Z" fill="#921D11"/>
<path d="M250.253 149.063H238.166V161.15H250.253V149.063Z" fill="#921D11"/>
<path d="M267.237 149.063H255.15V161.15H267.237V149.063Z" fill="#921D11"/>
<path d="M284.229 149.063H272.142V161.15H284.229V149.063Z" fill="#921D11"/>
<path d="M352.177 149.063H340.09V161.15H352.177V149.063Z" fill="#921D11"/>
<path d="M369.164 149.063H357.077V161.15H369.164V149.063Z" fill="#921D11"/>
<path d="M386.153 149.063H374.066V161.15H386.153V149.063Z" fill="#C44D34"/>
<path d="M403.138 149.063H391.051V161.15H403.138V149.063Z" fill="#C44D34"/>
<path d="M420.126 149.063H408.039V161.15H420.126V149.063Z" fill="#C44D34"/>
<path d="M437.112 149.063H425.025V161.15H437.112V149.063Z" fill="#C44D34"/>
<path d="M454.101 149.063H442.014V161.15H454.101V149.063Z" fill="#C44D34"/>
<path d="M471.088 149.063H459.001V161.15H471.088V149.063Z" fill="#921D11"/>
<path d="M488.076 149.063H475.989V161.15H488.076V149.063Z" fill="#921D11"/>
<path d="M505.062 149.063H492.975V161.15H505.062V149.063Z" fill="#921D11"/>
<path d="M29.4171 165.959H17.3301V178.047H29.4171V165.959Z" fill="#921D11"/>
<path d="M63.3898 165.959H51.3027V178.047H63.3898V165.959Z" fill="#921D11"/>
<path d="M80.379 165.959H68.292V178.047H80.379V165.959Z" fill="#921D11"/>
<path d="M97.3634 165.951H85.2764V178.038H97.3634V165.951Z" fill="#C44D34"/>
<path d="M114.467 166.944H102.38V179.031H114.467V166.944Z" fill="#C44D34"/>
<path d="M233.263 165.959H221.176V178.047H233.263V165.959Z" fill="#921D11"/>
<path d="M250.253 165.959H238.166V178.047H250.253V165.959Z" fill="#921D11"/>
<path d="M267.237 165.959H255.15V178.047H267.237V165.959Z" fill="#921D11"/>
<path d="M284.229 165.959H272.142V178.047H284.229V165.959Z" fill="#921D11"/>
<path d="M301.213 165.959H289.126V178.047H301.213V165.959Z" fill="#C44D34"/>
<path d="M318.202 165.959H306.115V178.047H318.202V165.959Z" fill="#921D11"/>
<path d="M335.189 165.959H323.102V178.047H335.189V165.959Z" fill="#921D11"/>
<path d="M352.177 165.959H340.09V178.047H352.177V165.959Z" fill="#C44D34"/>
<path d="M369.164 165.959H357.077V178.047H369.164V165.959Z" fill="#921D11"/>
<path d="M420.126 165.959H408.039V178.047H420.126V165.959Z" fill="#C44D34"/>
<path d="M437.112 165.959H425.025V178.047H437.112V165.959Z" fill="#921D11"/>
<path d="M454.101 165.959H442.014V178.047H454.101V165.959Z" fill="#921D11"/>
<path d="M471.088 165.959H459.001V178.047H471.088V165.959Z" fill="#921D11"/>
<path d="M488.076 165.959H475.989V178.047H488.076V165.959Z" fill="#921D11"/>
<path d="M505.062 165.959H492.975V178.047H505.062V165.959Z" fill="#921D11"/>
<path d="M522.048 165.959H509.961V178.047H522.048V165.959Z" fill="#921D11"/>
<path d="M29.4171 182.858H17.3301V194.945H29.4171V182.858Z" fill="#921D11"/>
<path d="M46.4064 182.858H34.3193V194.945H46.4064V182.858Z" fill="#921D11"/>
<path d="M63.3898 182.858H51.3027V194.945H63.3898V182.858Z" fill="#921D11"/>
<path d="M80.379 182.858H68.292V194.945H80.379V182.858Z" fill="#921D11"/>
<path d="M97.3634 182.849H85.2764V194.936H97.3634V182.849Z" fill="#C44D34"/>
<path d="M114.355 182.849H102.268V194.936H114.355V182.849Z" fill="#C44D34"/>
<path d="M131.34 182.858H119.253V194.945H131.34V182.858Z" fill="#C44D34"/>
<path d="M233.263 182.858H221.176V194.945H233.263V182.858Z" fill="#921D11"/>
<path d="M250.253 182.858H238.166V194.945H250.253V182.858Z" fill="#921D11"/>
<path d="M267.237 182.858H255.15V194.945H267.237V182.858Z" fill="#921D11"/>
<path d="M284.229 182.858H272.142V194.945H284.229V182.858Z" fill="#921D11"/>
<path d="M301.213 182.858H289.126V194.945H301.213V182.858Z" fill="#C44D34"/>
<path d="M352.177 182.858H340.09V194.945H352.177V182.858Z" fill="#C44D34"/>
<path d="M369.164 182.858H357.077V194.945H369.164V182.858Z" fill="#921D11"/>
<path d="M420.126 182.858H408.039V194.945H420.126V182.858Z" fill="#C44D34"/>
<path d="M437.112 182.858H425.025V194.945H437.112V182.858Z" fill="#921D11"/>
<path d="M454.101 182.858H442.014V194.945H454.101V182.858Z" fill="#921D11"/>
<path d="M471.088 182.858H459.001V194.945H471.088V182.858Z" fill="#921D11"/>
<path d="M488.076 182.858H475.989V194.945H488.076V182.858Z" fill="#921D11"/>
<path d="M505.062 182.858H492.975V194.945H505.062V182.858Z" fill="#921D11"/>
<path d="M522.048 182.858H509.961V194.945H522.048V182.858Z" fill="#921D11"/>
<path d="M12.4298 199.753H0.342773V211.84H12.4298V199.753Z" fill="#921D11"/>
<path d="M29.4171 199.753H17.3301V211.84H29.4171V199.753Z" fill="#921D11"/>
<path d="M46.4064 199.753H34.3193V211.84H46.4064V199.753Z" fill="#921D11"/>
<path d="M63.3898 199.753H51.3027V211.84H63.3898V199.753Z" fill="#921D11"/>
<path d="M80.379 199.753H68.292V211.84H80.379V199.753Z" fill="#921D11"/>
<path d="M97.3634 199.753H85.2764V211.84H97.3634V199.753Z" fill="#921D11"/>
<path d="M114.355 199.753H102.268V211.84H114.355V199.753Z" fill="#921D11"/>
<path d="M131.34 199.753H119.253V211.84H131.34V199.753Z" fill="#C44D34"/>
<path d="M148.325 199.753H136.238V211.84H148.325V199.753Z" fill="#C44D34"/>
<path d="M165.314 199.753H153.227V211.84H165.314V199.753Z" fill="#C44D34"/>
<path d="M250.253 199.753H238.166V211.84H250.253V199.753Z" fill="#921D11"/>
<path d="M267.237 199.753H255.15V211.84H267.237V199.753Z" fill="#921D11"/>
<path d="M284.229 199.753H272.142V211.84H284.229V199.753Z" fill="#921D11"/>
<path d="M301.213 199.753H289.126V211.84H301.213V199.753Z" fill="#C44D34"/>
<path d="M369.164 199.753H357.077V211.84H369.164V199.753Z" fill="#921D11"/>
<path d="M420.126 199.753H408.039V211.84H420.126V199.753Z" fill="#C44D34"/>
<path d="M437.112 199.753H425.025V211.84H437.112V199.753Z" fill="#921D11"/>
<path d="M454.101 199.753H442.014V211.84H454.101V199.753Z" fill="#921D11"/>
<path d="M471.088 199.753H459.001V211.84H471.088V199.753Z" fill="#921D11"/>
<path d="M488.076 199.753H475.989V211.84H488.076V199.753Z" fill="#921D11"/>
<path d="M505.062 199.753H492.975V211.84H505.062V199.753Z" fill="#921D11"/>
<path d="M522.048 199.753H509.961V211.84H522.048V199.753Z" fill="#C44D34"/>
<path d="M539.04 199.753H526.953V211.84H539.04V199.753Z" fill="#C44D34"/>
<path d="M12.4298 216.651H0.342773V228.738H12.4298V216.651Z" fill="#921D11"/>
<path d="M29.4171 216.651H17.3301V228.738H29.4171V216.651Z" fill="#921D11"/>
<path d="M46.4064 216.651H34.3193V228.738H46.4064V216.651Z" fill="#921D11"/>
<path d="M63.3898 216.651H51.3027V228.738H63.3898V216.651Z" fill="#921D11"/>
<path d="M80.379 216.651H68.292V228.738H80.379V216.651Z" fill="#921D11"/>
<path d="M97.3634 216.651H85.2764V228.738H97.3634V216.651Z" fill="#921D11"/>
<path d="M114.355 216.651H102.268V228.738H114.355V216.651Z" fill="#921D11"/>
<path d="M131.34 216.651H119.253V228.738H131.34V216.651Z" fill="#C44D34"/>
<path d="M148.325 216.651H136.238V228.738H148.325V216.651Z" fill="#C44D34"/>
<path d="M165.314 216.651H153.227V228.738H165.314V216.651Z" fill="#C44D34"/>
<path d="M267.237 216.651H255.15V228.738H267.237V216.651Z" fill="#921D11"/>
<path d="M284.229 216.651H272.142V228.738H284.229V216.651Z" fill="#921D11"/>
<path d="M301.213 216.651H289.126V228.738H301.213V216.651Z" fill="#C44D34"/>
<path d="M318.202 216.651H306.115V228.738H318.202V216.651Z" fill="#C44D34"/>
<path d="M369.164 216.651H357.077V228.738H369.164V216.651Z" fill="#921D11"/>
<path d="M420.126 216.651H408.039V228.738H420.126V216.651Z" fill="#C44D34"/>
<path d="M437.112 216.651H425.025V228.738H437.112V216.651Z" fill="#921D11"/>
<path d="M454.101 216.651H442.014V228.738H454.101V216.651Z" fill="#921D11"/>
<path d="M471.088 216.651H459.001V228.738H471.088V216.651Z" fill="#921D11"/>
<path d="M488.076 216.651H475.989V228.738H488.076V216.651Z" fill="#921D11"/>
<path d="M505.062 216.651H492.975V228.738H505.062V216.651Z" fill="#921D11"/>
<path d="M522.048 216.651H509.961V228.738H522.048V216.651Z" fill="#C44D34"/>
<path d="M29.4171 233.548H17.3301V245.635H29.4171V233.548Z" fill="#921D11"/>
<path d="M46.4064 233.548H34.3193V245.635H46.4064V233.548Z" fill="#921D11"/>
<path d="M63.3898 233.548H51.3027V245.635H63.3898V233.548Z" fill="#921D11"/>
<path d="M80.379 233.548H68.292V245.635H80.379V233.548Z" fill="#921D11"/>
<path d="M97.3634 233.548H85.2764V245.635H97.3634V233.548Z" fill="#921D11"/>
<path d="M114.355 233.548H102.268V245.635H114.355V233.548Z" fill="#921D11"/>
<path d="M131.34 233.548H119.253V245.635H131.34V233.548Z" fill="#921D11"/>
<path d="M148.325 233.548H136.238V245.635H148.325V233.548Z" fill="#C44D34"/>
<path d="M165.314 233.548H153.227V245.635H165.314V233.548Z" fill="#C44D34"/>
<path d="M182.302 233.548H170.215V245.635H182.302V233.548Z" fill="#C44D34"/>
<path d="M199.289 233.548H187.202V245.635H199.289V233.548Z" fill="#C44D34"/>
<path d="M233.263 233.548H221.176V245.635H233.263V233.548Z" fill="#C44D34"/>
<path d="M250.253 233.548H238.166V245.635H250.253V233.548Z" fill="#C44D34"/>
<path d="M267.237 233.548H255.15V245.635H267.237V233.548Z" fill="#C44D34"/>
<path d="M284.229 233.548H272.142V245.635H284.229V233.548Z" fill="#C44D34"/>
<path d="M301.213 233.548H289.126V245.635H301.213V233.548Z" fill="#921D11"/>
<path d="M318.202 233.548H306.115V245.635H318.202V233.548Z" fill="#921D11"/>
<path d="M335.189 233.548H323.102V245.635H335.189V233.548Z" fill="#921D11"/>
<path d="M352.177 233.548H340.09V245.635H352.177V233.548Z" fill="#921D11"/>
<path d="M369.164 233.548H357.077V245.635H369.164V233.548Z" fill="#C44D34"/>
<path d="M386.153 233.548H374.066V245.635H386.153V233.548Z" fill="#C44D34"/>
<path d="M403.138 233.548H391.051V245.635H403.138V233.548Z" fill="#921D11"/>
<path d="M420.126 233.548H408.039V245.635H420.126V233.548Z" fill="#921D11"/>
<path d="M437.112 233.548H425.025V245.635H437.112V233.548Z" fill="#921D11"/>
<path d="M454.101 233.548H442.014V245.635H454.101V233.548Z" fill="#921D11"/>
<path d="M471.088 233.548H459.001V245.635H471.088V233.548Z" fill="#921D11"/>
<path d="M488.076 233.548H475.989V245.635H488.076V233.548Z" fill="#921D11"/>
<path d="M505.062 233.548H492.975V245.635H505.062V233.548Z" fill="#921D11"/>
<path d="M522.048 233.548H509.961V245.635H522.048V233.548Z" fill="#921D11"/>
<path d="M539.04 233.548H526.953V245.635H539.04V233.548Z" fill="#C44D34"/>
<path d="M46.4064 250.445H34.3193V262.532H46.4064V250.445Z" fill="#921D11"/>
<path d="M63.3898 250.445H51.3027V262.532H63.3898V250.445Z" fill="#921D11"/>
<path d="M80.379 250.445H68.292V262.532H80.379V250.445Z" fill="#921D11"/>
<path d="M97.3634 250.445H85.2764V262.532H97.3634V250.445Z" fill="#921D11"/>
<path d="M114.355 250.445H102.268V262.532H114.355V250.445Z" fill="#921D11"/>
<path d="M131.34 250.445H119.253V262.532H131.34V250.445Z" fill="#921D11"/>
<path d="M148.325 250.445H136.238V262.532H148.325V250.445Z" fill="#C44D34"/>
<path d="M182.302 250.445H170.215V262.532H182.302V250.445Z" fill="#C44D34"/>
<path d="M233.263 250.445H221.176V262.532H233.263V250.445Z" fill="#C44D34"/>
<path d="M284.229 250.445H272.142V262.532H284.229V250.445Z" fill="#921D11"/>
<path d="M301.213 250.445H289.126V262.532H301.213V250.445Z" fill="#921D11"/>
<path d="M318.202 250.445H306.115V262.532H318.202V250.445Z" fill="#921D11"/>
<path d="M335.189 250.445H323.102V262.532H335.189V250.445Z" fill="#921D11"/>
<path d="M352.177 250.445H340.09V262.532H352.177V250.445Z" fill="#921D11"/>
<path d="M369.164 250.445H357.077V262.532H369.164V250.445Z" fill="#921D11"/>
<path d="M386.153 250.445H374.066V262.532H386.153V250.445Z" fill="#921D11"/>
<path d="M403.138 250.445H391.051V262.532H403.138V250.445Z" fill="#921D11"/>
<path d="M420.126 250.445H408.039V262.532H420.126V250.445Z" fill="#921D11"/>
<path d="M437.112 250.445H425.025V262.532H437.112V250.445Z" fill="#921D11"/>
<path d="M454.101 250.445H442.014V262.532H454.101V250.445Z" fill="#921D11"/>
<path d="M471.088 250.445H459.001V262.532H471.088V250.445Z" fill="#921D11"/>
<path d="M488.076 250.445H475.989V262.532H488.076V250.445Z" fill="#921D11"/>
<path d="M505.062 250.445H492.975V262.532H505.062V250.445Z" fill="#C44D34"/>
<path d="M522.048 250.445H509.961V262.532H522.048V250.445Z" fill="#C44D34"/>
<path d="M539.04 250.445H526.953V262.532H539.04V250.445Z" fill="#C44D34"/>
<path d="M46.4064 267.343H34.3193V279.43H46.4064V267.343Z" fill="#921D11"/>
<path d="M63.3898 267.343H51.3027V279.43H63.3898V267.343Z" fill="#921D11"/>
<path d="M80.379 267.343H68.292V279.43H80.379V267.343Z" fill="#921D11"/>
<path d="M97.3634 267.343H85.2764V279.43H97.3634V267.343Z" fill="#921D11"/>
<path d="M114.355 267.343H102.268V279.43H114.355V267.343Z" fill="#921D11"/>
<path d="M131.34 267.343H119.253V279.43H131.34V267.343Z" fill="#921D11"/>
<path d="M148.325 267.343H136.238V279.43H148.325V267.343Z" fill="#921D11"/>
<path d="M165.314 267.343H153.227V279.43H165.314V267.343Z" fill="#C44D34"/>
<path d="M301.213 267.343H289.126V279.43H301.213V267.343Z" fill="#921D11"/>
<path d="M318.202 267.343H306.115V279.43H318.202V267.343Z" fill="#921D11"/>
<path d="M335.189 267.343H323.102V279.43H335.189V267.343Z" fill="#921D11"/>
<path d="M352.177 267.343H340.09V279.43H352.177V267.343Z" fill="#921D11"/>
<path d="M420.126 267.343H408.039V279.43H420.126V267.343Z" fill="#C44D34"/>
<path d="M437.112 267.343H425.025V279.43H437.112V267.343Z" fill="#921D11"/>
<path d="M454.101 267.343H442.014V279.43H454.101V267.343Z" fill="#921D11"/>
<path d="M471.088 267.343H459.001V279.43H471.088V267.343Z" fill="#921D11"/>
<path d="M488.076 267.343H475.989V279.43H488.076V267.343Z" fill="#921D11"/>
<path d="M505.062 267.343H492.975V279.43H505.062V267.343Z" fill="#C44D34"/>
<path d="M539.04 267.343H526.953V279.43H539.04V267.343Z" fill="#C44D34"/>
<path d="M46.4064 284.238H34.3193V296.325H46.4064V284.238Z" fill="#921D11"/>
<path d="M63.3898 284.238H51.3027V296.325H63.3898V284.238Z" fill="#921D11"/>
<path d="M80.379 284.238H68.292V296.325H80.379V284.238Z" fill="#921D11"/>
<path d="M97.3634 284.238H85.2764V296.325H97.3634V284.238Z" fill="#921D11"/>
<path d="M114.355 284.238H102.268V296.325H114.355V284.238Z" fill="#921D11"/>
<path d="M131.34 284.238H119.253V296.325H131.34V284.238Z" fill="#921D11"/>
<path d="M148.325 284.238H136.238V296.325H148.325V284.238Z" fill="#921D11"/>
<path d="M165.314 284.238H153.227V296.325H165.314V284.238Z" fill="#C44D34"/>
<path d="M165.321 81.4741H153.234V93.5612H165.321V81.4741Z" fill="#F26649"/>
<path d="M182.309 81.4741H170.222V93.5612H182.309V81.4741Z" fill="#F26649"/>
<path d="M148.335 98.3696H136.248V110.457H148.335V98.3696Z" fill="#F26649"/>
<path d="M114.36 115.267H102.273V127.354H114.36V115.267Z" fill="#F26649"/>
<path d="M131.343 115.266H119.256V127.353H131.343V115.266Z" fill="#F26649"/>
<path d="M199.286 115.269H187.199V127.356H199.286V115.269Z" fill="#F26649"/>
<path d="M216.279 132.168H204.192V144.255H216.279V132.168Z" fill="#F26649"/>
<path d="M114.36 149.062H102.273V161.149H114.36V149.062Z" fill="#F26649"/>
<path d="M131.343 149.062H119.256V161.149H131.343V149.062Z" fill="#F26649"/>
<path d="M216.279 149.063H204.192V161.15H216.279V149.063Z" fill="#F26649"/>
<path d="M131.343 165.957H119.256V178.044H131.343V165.957Z" fill="#F26649"/>
<path d="M216.279 165.96H204.192V178.047H216.279V165.96Z" fill="#F26649"/>
<path d="M148.335 182.854H136.248V194.942H148.335V182.854Z" fill="#F26649"/>
<path d="M216.279 182.857H204.192V194.944H216.279V182.857Z" fill="#F26649"/>
<path d="M199.286 199.753H187.199V211.84H199.286V199.753Z" fill="#F26649"/>
<path d="M216.279 199.753H204.192V211.84H216.279V199.753Z" fill="#F26649"/>
<path d="M233.263 199.753H221.176V211.84H233.263V199.753Z" fill="#F26649"/>
<path d="M199.286 216.651H187.199V228.738H199.286V216.651Z" fill="#F26649"/>
<path d="M233.263 216.651H221.176V228.738H233.263V216.651Z" fill="#F26649"/>
<path d="M250.253 216.651H238.166V228.738H250.253V216.651Z" fill="#F26649"/>
<path d="M165.32 250.442H153.233V262.529H165.32V250.442Z" fill="#F26649"/>
<path d="M250.253 250.444H238.166V262.531H250.253V250.444Z" fill="#F26649"/>
<path d="M267.238 250.444H255.151V262.531H267.238V250.444Z" fill="#F26649"/>
<path d="M182.309 267.34H170.222V279.427H182.309V267.34Z" fill="#F26649"/>
<path d="M233.262 267.343H221.175V279.43H233.262V267.343Z" fill="#F26649"/>
<path d="M250.253 267.343H238.166V279.43H250.253V267.343Z" fill="#F26649"/>
<path d="M267.238 267.343H255.151V279.43H267.238V267.343Z" fill="#F26649"/>
<path d="M284.231 267.343H272.144V279.43H284.231V267.343Z" fill="#F26649"/>
<path d="M182.309 284.235H170.222V296.322H182.309V284.235Z" fill="#F26649"/>
<path d="M233.262 284.237H221.175V296.324H233.262V284.237Z" fill="#F26649"/>
<path d="M250.253 284.238H238.166V296.325H250.253V284.238Z" fill="#921D11"/>
<path d="M267.237 284.238H255.15V296.325H267.237V284.238Z" fill="#C44D34"/>
<path d="M284.229 284.238H272.142V296.325H284.229V284.238Z" fill="#C44D34"/>
<path d="M301.213 284.238H289.126V296.325H301.213V284.238Z" fill="#921D11"/>
<path d="M318.202 284.238H306.115V296.325H318.202V284.238Z" fill="#921D11"/>
<path d="M335.189 284.238H323.102V296.325H335.189V284.238Z" fill="#921D11"/>
<path d="M352.177 284.238H340.09V296.325H352.177V284.238Z" fill="#921D11"/>
<path d="M369.164 284.238H357.077V296.325H369.164V284.238Z" fill="#921D11"/>
<path d="M437.112 284.238H425.025V296.325H437.112V284.238Z" fill="#C44D34"/>
<path d="M454.101 284.238H442.014V296.325H454.101V284.238Z" fill="#921D11"/>
<path d="M471.088 284.238H459.001V296.325H471.088V284.238Z" fill="#921D11"/>
<path d="M488.076 284.238H475.989V296.325H488.076V284.238Z" fill="#921D11"/>
<path d="M505.062 284.238H492.975V296.325H505.062V284.238Z" fill="#C44D34"/>
<path d="M46.4064 301.135H34.3193V313.222H46.4064V301.135Z" fill="#921D11"/>
<path d="M63.3898 301.135H51.3027V313.222H63.3898V301.135Z" fill="#921D11"/>
<path d="M80.379 301.135H68.292V313.222H80.379V301.135Z" fill="#921D11"/>
<path d="M97.3634 301.135H85.2764V313.222H97.3634V301.135Z" fill="#921D11"/>
<path d="M114.355 301.135H102.268V313.222H114.355V301.135Z" fill="#921D11"/>
<path d="M131.34 301.135H119.253V313.222H131.34V301.135Z" fill="#921D11"/>
<path d="M148.325 301.135H136.238V313.222H148.325V301.135Z" fill="#921D11"/>
<path d="M165.314 301.135H153.227V313.222H165.314V301.135Z" fill="#C44D34"/>
<path d="M182.302 301.135H170.215V313.222H182.302V301.135Z" fill="#C44D34"/>
<path d="M199.289 301.135H187.202V313.222H199.289V301.135Z" fill="#921D11"/>
<path d="M216.276 301.135H204.189V313.222H216.276V301.135Z" fill="#921D11"/>
<path d="M267.237 301.135H255.15V313.222H267.237V301.135Z" fill="#921D11"/>
<path d="M284.229 301.135H272.142V313.222H284.229V301.135Z" fill="#921D11"/>
<path d="M301.213 301.135H289.126V313.222H301.213V301.135Z" fill="#921D11"/>
<path d="M318.202 301.135H306.115V313.222H318.202V301.135Z" fill="#C44D34"/>
<path d="M335.189 301.135H323.102V313.222H335.189V301.135Z" fill="#C44D34"/>
<path d="M352.177 301.135H340.09V313.222H352.177V301.135Z" fill="#C44D34"/>
<path d="M369.164 301.135H357.077V313.222H369.164V301.135Z" fill="#921D11"/>
<path d="M386.153 301.135H374.066V313.222H386.153V301.135Z" fill="#C44D34"/>
<path d="M437.112 301.135H425.025V313.222H437.112V301.135Z" fill="#C44D34"/>
<path d="M454.101 301.135H442.014V313.222H454.101V301.135Z" fill="#921D11"/>
<path d="M471.088 301.135H459.001V313.222H471.088V301.135Z" fill="#921D11"/>
<path d="M488.076 301.135H475.989V313.222H488.076V301.135Z" fill="#921D11"/>
<path d="M505.062 301.135H492.975V313.222H505.062V301.135Z" fill="#C44D34"/>
<path d="M46.4064 318.034H34.3193V330.121H46.4064V318.034Z" fill="#921D11"/>
<path d="M63.3898 318.034H51.3027V330.121H63.3898V318.034Z" fill="#921D11"/>
<path d="M80.379 318.034H68.292V330.121H80.379V318.034Z" fill="#921D11"/>
<path d="M97.3634 318.034H85.2764V330.121H97.3634V318.034Z" fill="#921D11"/>
<path d="M114.355 318.034H102.268V330.121H114.355V318.034Z" fill="#921D11"/>
<path d="M131.34 318.034H119.253V330.121H131.34V318.034Z" fill="#921D11"/>
<path d="M148.325 318.034H136.238V330.121H148.325V318.034Z" fill="#921D11"/>
<path d="M165.314 318.034H153.227V330.121H165.314V318.034Z" fill="#921D11"/>
<path d="M301.213 318.034H289.126V330.121H301.213V318.034Z" fill="#921D11"/>
<path d="M318.202 318.034H306.115V330.121H318.202V318.034Z" fill="#C44D34"/>
<path d="M369.164 318.034H357.077V330.121H369.164V318.034Z" fill="#C44D34"/>
<path d="M386.153 318.034H374.066V330.121H386.153V318.034Z" fill="#921D11"/>
<path d="M403.138 318.034H391.051V330.121H403.138V318.034Z" fill="#C44D34"/>
<path d="M420.126 318.034H408.039V330.121H420.126V318.034Z" fill="#C44D34"/>
<path d="M437.112 318.034H425.025V330.121H437.112V318.034Z" fill="#921D11"/>
<path d="M454.101 318.034H442.014V330.121H454.101V318.034Z" fill="#921D11"/>
<path d="M471.088 318.034H459.001V330.121H471.088V318.034Z" fill="#921D11"/>
<path d="M488.076 318.034H475.989V330.121H488.076V318.034Z" fill="#921D11"/>
<path d="M505.062 318.034H492.975V330.121H505.062V318.034Z" fill="#C44D34"/>
<path d="M522.048 318.034H509.961V330.121H522.048V318.034Z" fill="#C44D34"/>
<path d="M46.4064 334.93H34.3193V347.017H46.4064V334.93Z" fill="#921D11"/>
<path d="M63.3898 334.93H51.3027V347.017H63.3898V334.93Z" fill="#921D11"/>
<path d="M80.379 334.93H68.292V347.017H80.379V334.93Z" fill="#921D11"/>
<path d="M97.3634 334.93H85.2764V347.017H97.3634V334.93Z" fill="#921D11"/>
<path d="M131.34 334.93H119.253V347.017H131.34V334.93Z" fill="#921D11"/>
<path d="M148.325 334.93H136.238V347.017H148.325V334.93Z" fill="#921D11"/>
<path d="M301.213 334.93H289.126V347.017H301.213V334.93Z" fill="#921D11"/>
<path d="M352.177 334.93H340.09V347.017H352.177V334.93Z" fill="#C44D34"/>
<path d="M369.164 334.93H357.077V347.017H369.164V334.93Z" fill="#C44D34"/>
<path d="M386.153 334.93H374.066V347.017H386.153V334.93Z" fill="#921D11"/>
<path d="M403.138 334.93H391.051V347.017H403.138V334.93Z" fill="#921D11"/>
<path d="M420.126 334.93H408.039V347.017H420.126V334.93Z" fill="#921D11"/>
<path d="M437.112 334.93H425.025V347.017H437.112V334.93Z" fill="#921D11"/>
<path d="M454.101 334.93H442.014V347.017H454.101V334.93Z" fill="#921D11"/>
<path d="M471.088 334.93H459.001V347.017H471.088V334.93Z" fill="#921D11"/>
<path d="M488.076 334.93H475.989V347.017H488.076V334.93Z" fill="#921D11"/>
<path d="M505.062 334.93H492.975V347.017H505.062V334.93Z" fill="#921D11"/>
<path d="M522.048 334.93H509.961V347.017H522.048V334.93Z" fill="#921D11"/>
<path d="M63.3898 351.826H51.3027V363.913H63.3898V351.826Z" fill="#921D11"/>
<path d="M80.379 351.826H68.292V363.913H80.379V351.826Z" fill="#921D11"/>
<path d="M318.202 351.826H306.115V363.913H318.202V351.826Z" fill="#921D11"/>
<path d="M335.189 351.826H323.102V363.913H335.189V351.826Z" fill="#921D11"/>
<path d="M352.177 351.826H340.09V363.913H352.177V351.826Z" fill="#921D11"/>
<path d="M369.164 351.826H357.077V363.913H369.164V351.826Z" fill="#921D11"/>
<path d="M386.153 351.826H374.066V363.913H386.153V351.826Z" fill="#921D11"/>
<path d="M403.138 351.826H391.051V363.913H403.138V351.826Z" fill="#921D11"/>
<path d="M420.126 351.826H408.039V363.913H420.126V351.826Z" fill="#921D11"/>
<path d="M437.112 351.826H425.025V363.913H437.112V351.826Z" fill="#921D11"/>
<path d="M454.101 351.826H442.014V363.913H454.101V351.826Z" fill="#921D11"/>
<path d="M471.088 351.826H459.001V363.913H471.088V351.826Z" fill="#921D11"/>
<path d="M488.076 351.826H475.989V363.913H488.076V351.826Z" fill="#921D11"/>
<path d="M505.062 351.826H492.975V363.913H505.062V351.826Z" fill="#921D11"/>
<path d="M369.164 368.725H357.077V380.812H369.164V368.725Z" fill="#921D11"/>
<path d="M386.153 368.725H374.066V380.812H386.153V368.725Z" fill="#921D11"/>
<path d="M403.138 368.725H391.051V380.812H403.138V368.725Z" fill="#921D11"/>
<path d="M420.126 368.725H408.039V380.812H420.126V368.725Z" fill="#921D11"/>
<path d="M437.112 368.725H425.025V380.812H437.112V368.725Z" fill="#921D11"/>
<path d="M454.101 368.725H442.014V380.812H454.101V368.725Z" fill="#C44D34"/>
<path d="M471.088 368.725H459.001V380.812H471.088V368.725Z" fill="#C44D34"/>
<path d="M488.076 368.725H475.989V380.812H488.076V368.725Z" fill="#C44D34"/>
<path d="M505.062 368.725H492.975V380.812H505.062V368.725Z" fill="#C44D34"/>
<path d="M369.164 385.619H357.077V397.706H369.164V385.619Z" fill="#921D11"/>
<path d="M386.153 385.619H374.066V397.706H386.153V385.619Z" fill="#C44D34"/>
<path d="M403.138 385.619H391.051V397.706H403.138V385.619Z" fill="#921D11"/>
<path d="M420.126 385.619H408.039V397.706H420.126V385.619Z" fill="#921D11"/>
<path d="M437.112 385.619H425.025V397.706H437.112V385.619Z" fill="#921D11"/>
<path d="M454.101 385.619H442.014V397.706H454.101V385.619Z" fill="#C44D34"/>
<path d="M471.088 385.619H459.001V397.706H471.088V385.619Z" fill="#C44D34"/>
<path d="M488.076 385.619H475.989V397.706H488.076V385.619Z" fill="#C44D34"/>
<path d="M505.062 385.619H492.975V397.706H505.062V385.619Z" fill="#C44D34"/>
<path d="M403.138 402.518H391.051V414.605H403.138V402.518Z" fill="#C44D34"/>
<path d="M403.136 47.6797H391.049V59.7667H403.136V47.6797Z" fill="#F26649"/>
<path d="M420.124 47.6797H408.037V59.7667H420.124V47.6797Z" fill="#F26649"/>
<path d="M267.236 64.5791H255.149V76.6661H267.236V64.5791Z" fill="#F26649"/>
<path d="M284.225 64.5791H272.138V76.6661H284.225V64.5791Z" fill="#F26649"/>
<path d="M403.136 64.5791H391.049V76.6661H403.136V64.5791Z" fill="#F26649"/>
<path d="M250.249 81.4766H238.162V93.5636H250.249V81.4766Z" fill="#F26649"/>
<path d="M284.225 81.4766H272.138V93.5636H284.225V81.4766Z" fill="#F26649"/>
<path d="M386.151 81.4766H374.064V93.5636H386.151V81.4766Z" fill="#F26649"/>
<path d="M250.249 98.3726H238.162V110.46H250.249V98.3726Z" fill="#F26649"/>
<path d="M301.212 98.3726H289.125V110.46H301.212V98.3726Z" fill="#F26649"/>
<path d="M318.2 98.3726H306.113V110.46H318.2V98.3726Z" fill="#F26649"/>
<path d="M369.165 98.3726H357.078V110.46H369.165V98.3726Z" fill="#F26649"/>
<path d="M250.249 115.27H238.162V127.357H250.249V115.27Z" fill="#F26649"/>
<path d="M267.236 115.27H255.149V127.357H267.236V115.27Z" fill="#F26649"/>
<path d="M301.212 115.27H289.125V127.357H301.212V115.27Z" fill="#F26649"/>
<path d="M369.165 115.27H357.078V127.357H369.165V115.27Z" fill="#F26649"/>
<path d="M386.151 115.27H374.064V127.357H386.151V115.27Z" fill="#F26649"/>
<path d="M437.112 115.27H425.025V127.357H437.112V115.27Z" fill="#F26649"/>
<path d="M301.212 132.168H289.125V144.255H301.212V132.168Z" fill="#F26649"/>
<path d="M335.19 132.168H323.103V144.255H335.19V132.168Z" fill="#F26649"/>
<path d="M420.124 132.168H408.037V144.255H420.124V132.168Z" fill="#F26649"/>
<path d="M437.112 132.168H425.025V144.255H437.112V132.168Z" fill="#F26649"/>
<path d="M301.212 149.063H289.125V161.151H301.212V149.063Z" fill="#F26649"/>
<path d="M335.19 149.063H323.103V161.151H335.19V149.063Z" fill="#F26649"/>
<path d="M386.151 165.959H374.064V178.047H386.151V165.959Z" fill="#F26649"/>
<path d="M403.136 165.959H391.049V178.047H403.136V165.959Z" fill="#F26649"/>
<path d="M318.2 182.858H306.113V194.945H318.2V182.858Z" fill="#F26649"/>
<path d="M335.19 182.858H323.103V194.945H335.19V182.858Z" fill="#F26649"/>
<path d="M386.151 182.858H374.064V194.945H386.151V182.858Z" fill="#F26649"/>
<path d="M403.136 182.858H391.049V194.945H403.136V182.858Z" fill="#F26649"/>
<path d="M318.2 199.753H306.113V211.84H318.2V199.753Z" fill="#F26649"/>
<path d="M352.176 199.753H340.089V211.84H352.176V199.753Z" fill="#F26649"/>
<path d="M386.151 199.753H374.064V211.84H386.151V199.753Z" fill="#F26649"/>
<path d="M403.136 199.753H391.049V211.84H403.136V199.753Z" fill="#F26649"/>
<path d="M335.19 216.651H323.103V228.738H335.19V216.651Z" fill="#F26649"/>
<path d="M352.176 216.651H340.089V228.738H352.176V216.651Z" fill="#F26649"/>
<path d="M386.151 216.651H374.064V228.738H386.151V216.651Z" fill="#F26649"/>
<path d="M403.136 216.651H391.049V228.738H403.136V216.651Z" fill="#F26649"/>
<path d="M539.036 216.651H526.949V228.738H539.036V216.651Z" fill="#F26649"/>
<path d="M369.165 267.343H357.078V279.43H369.165V267.343Z" fill="#F26649"/>
<path d="M522.044 267.343H509.957V279.43H522.044V267.343Z" fill="#F26649"/>
<path d="M522.044 284.238H509.957V296.325H522.044V284.238Z" fill="#F26649"/>
<path d="M539.036 284.238H526.949V296.325H539.036V284.238Z" fill="#F26649"/>
<path d="M522.044 301.136H509.957V313.223H522.044V301.136Z" fill="#F26649"/>
<path d="M539.036 301.136H526.949V313.223H539.036V301.136Z" fill="#F26649"/>
<path d="M335.19 318.034H323.103V330.121H335.19V318.034Z" fill="#F26649"/>
<path d="M352.176 318.034H340.089V330.121H352.176V318.034Z" fill="#F26649"/>
<path d="M318.2 334.929H306.113V347.016H318.2V334.929Z" fill="#F26649"/>
<path d="M335.19 334.929H323.103V347.016H335.19V334.929Z" fill="#F26649"/>
<path d="M420.124 402.518H408.037V414.605H420.124V402.518Z" fill="#F26649"/>
<path d="M437.112 402.518H425.025V414.605H437.112V402.518Z" fill="#F26649"/>
<path d="M454.101 402.518H442.014V414.605H454.101V402.518Z" fill="#C44D34"/>
<path d="M471.088 402.518H459.001V414.605H471.088V402.518Z" fill="#C44D34"/>
<path d="M437.112 453.21H425.025V465.297H437.112V453.21Z" fill="#C44D34"/>
<path d="M454.101 453.21H442.014V465.297H454.101V453.21Z" fill="#921D11"/>
<path d="M471.088 453.21H459.001V465.297H471.088V453.21Z" fill="#921D11"/>
<path d="M454.101 470.106H442.014V482.193H454.101V470.106Z" fill="#C44D34"/>
<path d="M471.088 470.106H459.001V482.193H471.088V470.106Z" fill="#921D11"/>
</svg>
